<?xml version="1.0" encoding="utf-8"?><svg xml:space="preserve" viewBox="0 0 100 100" y="0" x="0" xmlns="http://www.w3.org/2000/svg" id="圖層_1" version="1.1" width="47px" height="47px" xmlns:xlink="http://www.w3.org/1999/xlink" style="width:100%;height:100%;background-size:initial;background-repeat-y:initial;background-repeat-x:initial;background-position-y:initial;background-position-x:initial;background-origin:initial;background-image:initial;background-clip:initial;background-attachment:initial;animation-play-state:paused" ><g class="ldl-scale" style="transform-origin:50% 50%;transform:rotate(0deg) scale(0.8, 0.8);animation-play-state:paused" ><path fill="#353035" d="M53.558 74.185l-3.341 2.07-22.593-36.47a1.965 1.965 0 1 1 3.342-2.07l22.592 36.47z" style="fill:rgb(53, 48, 53);animation-play-state:paused" ></path>
<path fill="#f47e60" d="M36.769 43.424l-6.619 4.101a1.67 1.67 0 0 1-2.126-.309l-.818-.92a.722.722 0 0 1 .159-1.094l8.566-5.307a.722.722 0 0 1 1.05.345l.459 1.142a1.67 1.67 0 0 1-.671 2.042z" style="fill:rgb(244, 126, 96);animation-play-state:paused" ></path>
<path fill="#333" d="M60.748 43.674a23.131 23.131 0 0 0-10.27-2.397c-3.704 0-7.189.875-10.27 2.397-7.257 3.585-12.23 10.831-12.23 19.206v14.467c0 2.984 2.52 5.403 5.628 5.403H67.35c3.108 0 5.628-2.419 5.628-5.403V62.88c0-8.375-4.974-15.621-12.23-19.206z" style="fill:rgb(51, 51, 51);animation-play-state:paused" ></path>
<path fill="#666" d="M51.43 61.282l9.318-17.608a23.128 23.128 0 0 0-10.27-2.397c-3.704 0-7.189.875-10.27 2.397l9.318 17.608c.364.975 1.539.975 1.904 0z" style="fill:rgb(102, 102, 102);animation-play-state:paused" ></path>
<circle fill="#c7b299" r="14.25" cy="31.763" cx="50.478" style="fill:rgb(199, 178, 153);animation-play-state:paused" ></circle>
<path fill="#c33737" d="M63.356 34.516a5.143 5.143 0 0 1-.488.858 1.49 1.49 0 0 0-.133 1.452l3.622 8.2a14.57 14.57 0 0 0 2.125-4.907l-4.124-5.738c-.268-.371-.816-.283-1.002.135z" style="fill:rgb(195, 55, 55);animation-play-state:paused" ></path>
<path fill="#333" d="M50.478 17.25c-8.016 0-14.513 6.498-14.513 14.513s6.498 14.513 14.513 14.513 14.513-6.498 14.513-14.513S58.493 17.25 50.478 17.25zm6.687 16.625H43.79a3.5 3.5 0 1 1 0-7h13.375a3.5 3.5 0 1 1 0 7z" style="fill:rgb(51, 51, 51);animation-play-state:paused" ></path>
<path fill="none" d="M43.79 33.875h13.375a3.5 3.5 0 1 0 0-7H43.79a3.5 3.5 0 1 0 0 7z" style="animation-play-state:paused" ></path>
<path fill="#c33737" d="M60.189 21H40.766a14.539 14.539 0 0 0-3.245 4.25h25.913A14.539 14.539 0 0 0 60.189 21z" style="fill:rgb(195, 55, 55);animation-play-state:paused" ></path>
<metadata xmlns:d="https://loading.io/stock/" style="animation-play-state:paused" ><d:name style="animation-play-state:paused" >ninja</d:name>


<d:tags style="animation-play-state:paused" >samurai,japan,killer,hitman,assassin,ninja,people</d:tags>


<d:license style="animation-play-state:paused" >by</d:license>


<d:slug style="animation-play-state:paused" >iyxufo</d:slug></metadata></g><!-- generated by https://loading.io/ --></svg>